<svg xmlns="http://www.w3.org/2000/svg" viewBox="0 0 3508 2480" width="3508" height="2480">
<defs>
  <marker id="arrow-d" markerWidth="14" markerHeight="14" refX="7" refY="12" orient="auto">
    <path d="M 1 1 L 7 12 L 13 1 Z" fill="#000000" />
  </marker>
  <marker id="arrow-u" markerWidth="14" markerHeight="14" refX="7" refY="2" orient="auto">
    <path d="M 1 13 L 7 2 L 13 13 Z" fill="#000000" />
  </marker>
</defs>
<rect width="3508" height="2480" fill="#FFFFFF" />
<text x="1754" y="150" font-family="Arial, Helvetica, sans-serif" font-size="64" font-weight="bold" fill="#000000" text-anchor="middle">QueryLearn Layered System Architecture</text>
<text x="1754" y="2380" font-family="Arial, Helvetica, sans-serif" font-size="44" fill="#000000" text-anchor="middle">Figure 2. Layered Architecture Diagram of QueryLearn</text>
<rect x="130" y="690" width="3248" height="1560" fill="none" stroke="#000000" stroke-width="3" stroke-dasharray="16,12" rx="14" ry="14" />
<rect x="2700" y="664" width="620" height="52" fill="#FFFFFF" stroke="#000000" stroke-width="2" rx="8" ry="8" />
<text x="3010" y="700" font-family="Arial, Helvetica, sans-serif" font-size="30" font-weight="bold" font-style="italic" fill="#000000" text-anchor="middle">Hosted on Vercel (serverless)</text>
<rect x="180" y="220" width="3148" height="330" fill="#F4F6F8" stroke="#000000" stroke-width="4" rx="12" ry="12" />
<text x="220" y="270" font-family="Arial, Helvetica, sans-serif" font-size="34" font-weight="bold" fill="#000000">Presentation Layer (Browser Client)</text>
<rect x="220" y="295" width="720" height="225" fill="#FFFFFF" stroke="#000000" stroke-width="3" rx="8" ry="8" />
<text x="580" y="420" font-family="Arial, Helvetica, sans-serif" font-size="52" font-weight="bold" fill="#000000" text-anchor="middle">HTML User Interface</text>
<rect x="1016" y="295" width="720" height="225" fill="#FFFFFF" stroke="#000000" stroke-width="3" rx="8" ry="8" />
<text x="1376" y="420" font-family="Arial, Helvetica, sans-serif" font-size="52" font-weight="bold" fill="#000000" text-anchor="middle">CodeMirror Editor</text>
<rect x="1812" y="295" width="720" height="225" fill="#FFFFFF" stroke="#000000" stroke-width="3" rx="8" ry="8" />
<text x="2172" y="420" font-family="Arial, Helvetica, sans-serif" font-size="52" font-weight="bold" fill="#000000" text-anchor="middle">Task & Clock Timers</text>
<rect x="2608" y="295" width="720" height="225" fill="#FFFFFF" stroke="#000000" stroke-width="3" rx="8" ry="8" />
<text x="2968" y="420" font-family="Arial, Helvetica, sans-serif" font-size="52" font-weight="bold" fill="#000000" text-anchor="middle">Chart.js Visualizations</text>
<line x1="978" y1="550" x2="978" y2="744" stroke="#000000" stroke-width="3" marker-end="url(#arrow-d)" />
<rect x="688" y="622" width="580" height="54" fill="#FFFFFF" stroke="#CBD5E1" stroke-width="2" rx="8" ry="8" />
<text x="978" y="659" font-family="Arial, Helvetica, sans-serif" font-size="30" font-weight="bold" fill="#000000" text-anchor="middle">HTTP Requests (GET / POST)</text>
<line x1="2570" y1="750" x2="2570" y2="556" stroke="#000000" stroke-width="3" marker-end="url(#arrow-u)" />
<rect x="2270" y="622" width="600" height="54" fill="#FFFFFF" stroke="#CBD5E1" stroke-width="2" rx="8" ry="8" />
<text x="2570" y="659" font-family="Arial, Helvetica, sans-serif" font-size="30" font-weight="bold" fill="#000000" text-anchor="middle">HTTP Responses (HTML / JSON)</text>
<rect x="180" y="750" width="3148" height="330" fill="#F4F6F8" stroke="#000000" stroke-width="4" rx="12" ry="12" />
<text x="220" y="800" font-family="Arial, Helvetica, sans-serif" font-size="34" font-weight="bold" fill="#000000">Application Layer (Flask Web Framework)</text>
<rect x="220" y="825" width="720" height="225" fill="#FFFFFF" stroke="#000000" stroke-width="3" rx="8" ry="8" />
<text x="580" y="950" font-family="Arial, Helvetica, sans-serif" font-size="52" font-weight="bold" fill="#000000" text-anchor="middle">auth_bp</text>
<rect x="1016" y="825" width="720" height="225" fill="#FFFFFF" stroke="#000000" stroke-width="3" rx="8" ry="8" />
<text x="1376" y="950" font-family="Arial, Helvetica, sans-serif" font-size="52" font-weight="bold" fill="#000000" text-anchor="middle">experiment_bp</text>
<rect x="1812" y="825" width="720" height="225" fill="#FFFFFF" stroke="#000000" stroke-width="3" rx="8" ry="8" />
<text x="2172" y="950" font-family="Arial, Helvetica, sans-serif" font-size="52" font-weight="bold" fill="#000000" text-anchor="middle">tasks_bp</text>
<rect x="2608" y="825" width="720" height="225" fill="#FFFFFF" stroke="#000000" stroke-width="3" rx="8" ry="8" />
<text x="2968" y="950" font-family="Arial, Helvetica, sans-serif" font-size="52" font-weight="bold" fill="#000000" text-anchor="middle">dashboard_bp</text>
<line x1="978" y1="1080" x2="978" y2="1234" stroke="#000000" stroke-width="3" marker-end="url(#arrow-d)" />
<rect x="668" y="1132" width="620" height="54" fill="#FFFFFF" stroke="#CBD5E1" stroke-width="2" rx="8" ry="8" />
<text x="978" y="1169" font-family="Arial, Helvetica, sans-serif" font-size="30" font-weight="bold" fill="#000000" text-anchor="middle">Service Invocations &amp; Logic Calls</text>
<line x1="2570" y1="1240" x2="2570" y2="1086" stroke="#000000" stroke-width="3" marker-end="url(#arrow-u)" />
<rect x="2255" y="1132" width="630" height="54" fill="#FFFFFF" stroke="#CBD5E1" stroke-width="2" rx="8" ry="8" />
<text x="2570" y="1169" font-family="Arial, Helvetica, sans-serif" font-size="30" font-weight="bold" fill="#000000" text-anchor="middle">Execution Results &amp; Telemetry Data</text>
<rect x="180" y="1240" width="3148" height="470" fill="#F4F6F8" stroke="#000000" stroke-width="4" rx="12" ry="12" />
<text x="220" y="1290" font-family="Arial, Helvetica, sans-serif" font-size="34" font-weight="bold" fill="#000000">Services Layer (Domain Logic &amp; Orchestration)</text>
<rect x="220" y="1315" width="720" height="175" fill="#FFFFFF" stroke="#000000" stroke-width="3" rx="8" ry="8" />
<text x="580" y="1420" font-family="Arial, Helvetica, sans-serif" font-size="50" font-weight="bold" fill="#000000" text-anchor="middle">task_catalog</text>
<rect x="1016" y="1315" width="720" height="175" fill="#FFFFFF" stroke="#000000" stroke-width="3" rx="8" ry="8" />
<text x="1376" y="1420" font-family="Arial, Helvetica, sans-serif" font-size="50" font-weight="bold" fill="#000000" text-anchor="middle">sql_runner</text>
<rect x="1812" y="1315" width="720" height="175" fill="#FFFFFF" stroke="#000000" stroke-width="3" rx="8" ry="8" />
<text x="2172" y="1420" font-family="Arial, Helvetica, sans-serif" font-size="50" font-weight="bold" fill="#000000" text-anchor="middle">python_runner</text>
<rect x="2608" y="1315" width="720" height="175" fill="#FFFFFF" stroke="#000000" stroke-width="3" rx="8" ry="8" />
<text x="2968" y="1420" font-family="Arial, Helvetica, sans-serif" font-size="50" font-weight="bold" fill="#000000" text-anchor="middle">answer_checker</text>
<rect x="220" y="1510" width="720" height="175" fill="#FFFFFF" stroke="#000000" stroke-width="3" rx="8" ry="8" />
<text x="580" y="1615" font-family="Arial, Helvetica, sans-serif" font-size="50" font-weight="bold" fill="#000000" text-anchor="middle">sequence_manager</text>
<rect x="1016" y="1510" width="720" height="175" fill="#FFFFFF" stroke="#000000" stroke-width="3" rx="8" ry="8" />
<text x="1376" y="1615" font-family="Arial, Helvetica, sans-serif" font-size="50" font-weight="bold" fill="#000000" text-anchor="middle">comprehension_items</text>
<rect x="1812" y="1510" width="720" height="175" fill="#FFFFFF" stroke="#000000" stroke-width="3" rx="8" ry="8" />
<text x="2172" y="1615" font-family="Arial, Helvetica, sans-serif" font-size="50" font-weight="bold" fill="#000000" text-anchor="middle">benchmark_runner</text>
<rect x="2608" y="1510" width="720" height="175" fill="#FFFFFF" stroke="#000000" stroke-width="3" rx="8" ry="8" />
<text x="2968" y="1615" font-family="Arial, Helvetica, sans-serif" font-size="50" font-weight="bold" fill="#000000" text-anchor="middle">export_service</text>
<line x1="978" y1="1710" x2="978" y2="1874" stroke="#000000" stroke-width="3" marker-end="url(#arrow-d)" />
<rect x="668" y="1767" width="620" height="54" fill="#FFFFFF" stroke="#CBD5E1" stroke-width="2" rx="8" ry="8" />
<text x="978" y="1804" font-family="Arial, Helvetica, sans-serif" font-size="30" font-weight="bold" fill="#000000" text-anchor="middle">Database Operations &amp; File Reads</text>
<line x1="2570" y1="1880" x2="2570" y2="1716" stroke="#000000" stroke-width="3" marker-end="url(#arrow-u)" />
<rect x="2255" y="1767" width="630" height="54" fill="#FFFFFF" stroke="#CBD5E1" stroke-width="2" rx="8" ry="8" />
<text x="2570" y="1804" font-family="Arial, Helvetica, sans-serif" font-size="30" font-weight="bold" fill="#000000" text-anchor="middle">Relational Datasets &amp; Test Payloads</text>
<rect x="180" y="1880" width="3148" height="340" fill="#F4F6F8" stroke="#000000" stroke-width="4" rx="12" ry="12" />
<text x="220" y="1930" font-family="Arial, Helvetica, sans-serif" font-size="34" font-weight="bold" fill="#000000">Data Layer (Local &amp; Ephemeral Serverless Storage)</text>
<rect x="220" y="1955" width="720" height="235" fill="#FFFFFF" stroke="#000000" stroke-width="3" rx="8" ry="8" />
<text x="580" y="2085" font-family="Arial, Helvetica, sans-serif" font-size="48" font-weight="bold" fill="#000000" text-anchor="middle">research.db (SQLite)</text>
<rect x="1016" y="1955" width="720" height="235" fill="#FFFFFF" stroke="#000000" stroke-width="3" rx="8" ry="8" />
<text x="1376" y="2085" font-family="Arial, Helvetica, sans-serif" font-size="48" font-weight="bold" fill="#000000" text-anchor="middle">experiment_a.db (SQLite)</text>
<rect x="1812" y="1955" width="720" height="235" fill="#FFFFFF" stroke="#000000" stroke-width="3" rx="8" ry="8" />
<text x="2172" y="2085" font-family="Arial, Helvetica, sans-serif" font-size="48" font-weight="bold" fill="#000000" text-anchor="middle">experiment_b.db (SQLite)</text>
<rect x="2608" y="1955" width="720" height="235" fill="#FFFFFF" stroke="#000000" stroke-width="3" rx="8" ry="8" />
<text x="2968" y="2085" font-family="Arial, Helvetica, sans-serif" font-size="48" font-weight="bold" fill="#000000" text-anchor="middle">hidden_tests.json (JSON)</text>
</svg>